<?xml version="1.0" encoding="UTF-8" standalone="no"?>
<svg
   width="100"
   height="100"
   viewBox="0 0 1170 1063"
   version="1.1"
   id="svg6"
   sodipodi:docname="api.svg"
   inkscape:version="1.1.2 (0a00cf5339, 2022-02-04)"
   xmlns:inkscape="http://www.inkscape.org/namespaces/inkscape"
   xmlns:sodipodi="http://sodipodi.sourceforge.net/DTD/sodipodi-0.dtd"
   xmlns="http://www.w3.org/2000/svg"
   xmlns:svg="http://www.w3.org/2000/svg"
   xmlns:rdf="http://www.w3.org/1999/02/22-rdf-syntax-ns#"
   xmlns:cc="http://creativecommons.org/ns#"
   xmlns:dc="http://purl.org/dc/elements/1.1/"
   xmlns:x="adobe:ns:meta/">
  <defs
     id="defs10" />
  <sodipodi:namedview
     pagecolor="#ffffff"
     bordercolor="#666666"
     borderopacity="1"
     objecttolerance="10"
     gridtolerance="10"
     guidetolerance="10"
     inkscape:pageopacity="0"
     inkscape:pageshadow="2"
     inkscape:window-width="1920"
     inkscape:window-height="995"
     id="namedview8"
     showgrid="false"
     inkscape:zoom="1.4727968"
     inkscape:cx="-54.657912"
     inkscape:cy="56.355363"
     inkscape:window-x="0"
     inkscape:window-y="0"
     inkscape:window-maximized="1"
     inkscape:current-layer="svg6"
     inkscape:pagecheckerboard="0" />
  <metadata
     id="metadata2">
<?xpacket begin="﻿" id="W5M0MpCehiHzreSzNTczkc9d"?>    <x:xmpmeta
       x:xmptk="Adobe XMP Core 5.6-c138 79.159824, 2016/09/14-01:09:01        ">
      <metadata>
        <rdf:RDF>
          <rdf:Description
             rdf:about="" />
          <cc:Work
             rdf:about="">
            <dc:format>image/svg+xml</dc:format>
            <dc:type
               rdf:resource="http://purl.org/dc/dcmitype/StillImage" />
          </cc:Work>
        </rdf:RDF>
      </metadata>
    </x:xmpmeta>
<?xpacket end="w"?>  </metadata>
  <path
     style="fill:#911230;fill-opacity:1"
     d="M 179,1063 H 0 V 531.5 0 H 174 348 V 64.5 129 H 238.5 129 V 531.5 934 H 243.5 358 v 64.5 64.5 z m 812,0 H 812 V 998.5 934 H 926.5 1041 V 531.5 129 H 931.5 822 V 64.5 0 h 174 174 V 531.5 1063 Z M 431.85566,754.93419 423.5,754.86838 l -5.5,-1.45104 -5.5,-1.45104 -6.5,-3.14707 -6.5,-3.14706 -7.53365,-7.58609 -7.53364,-7.58608 -3.20193,-6.1129 -3.20192,-6.1129 -1.65081,-6.3871 -1.65081,-6.3871 v -8 -8 l 1.65081,-6.3871 1.65081,-6.3871 3.20192,-6.1129 3.20193,-6.1129 7.53364,-7.58608 7.53365,-7.58609 6.54534,-3.20044 6.54535,-3.20044 5.45465,-1.45161 5.45466,-1.4516 8.5399,-0.0119 8.5399,-0.0119 5.8679,1.52839 5.8679,1.5284 7.0922,3.71137 7.0922,3.71137 6.6083,6.58405 6.6083,6.58405 3.62667,7.42619 3.62667,7.42618 1.51503,5.9601 1.51503,5.9601 v 7.0798 7.0798 l -1.51503,5.9601 -1.51503,5.9601 -3.62667,7.42618 -3.62667,7.42619 -6.6083,6.58405 -6.6083,6.58405 -7,3.65458 -7,3.65458 -6.14434,1.58519 -6.14435,1.58518 -8.35565,-0.0658 z m 148.18424,0 -8.5399,-0.0658 -5.5,-1.44731 -5.5,-1.44731 -6.23842,-3.13062 -6.23842,-3.13061 -6.19476,-5.60593 -6.19475,-5.60594 -3.82753,-5.92192 -3.82752,-5.92192 -2.4893,-7.88003 -2.4893,-7.88003 0.0119,-9.19838 0.0119,-9.19838 1.4516,-5.45466 1.45161,-5.45465 3.20044,-6.54535 3.20044,-6.54534 7.58609,-7.58608 7.58608,-7.58609 6.5,-3.1423 6.5,-3.14229 5.9601,-1.52162 5.9601,-1.52162 h 8.0798 8.0798 l 5.92558,1.54342 5.92557,1.54341 6.53453,3.20377 6.53452,3.20376 7.05021,7.00282 7.05021,7.00282 3.67713,7.10311 3.67713,7.10312 1.50788,6.39688 1.50788,6.39689 v 7 7 l -1.50788,6.39689 -1.50788,6.39688 -3.72624,7.10312 -3.72625,7.10311 -6.50109,6.54614 -6.5011,6.54614 -7.0922,3.67547 -7.0922,3.67546 -5.8679,1.5284 -5.8679,1.52839 -8.5399,-0.0658 z m 148,0 -8.5399,-0.0658 -5.42839,-1.45935 -5.42838,-1.45934 -6.57162,-3.20801 -6.57161,-3.20801 -7.51684,-7.51683 -7.51683,-7.51684 -3.18975,-6.53452 -3.18975,-6.53453 -1.54341,-5.92557 L 671,705.5798 V 697.5 689.4202 l 1.54342,-5.92558 1.54341,-5.92557 3.18975,-6.53453 3.18975,-6.53452 7.51683,-7.50712 7.51684,-7.50713 6.5,-3.22496 6.5,-3.22497 5.9601,-1.51791 L 720.4202,640 h 8.0798 8.0798 l 5.9601,1.51791 5.9601,1.51791 6.5,3.22497 6.5,3.22496 7.51684,7.50713 7.51683,7.50712 3.18975,6.53452 3.18975,6.53453 1.54341,5.92557 L 786,689.4202 v 8.0798 8.0798 l -1.54342,5.92558 -1.54341,5.92557 -3.18975,6.53453 -3.18975,6.53452 -7.51683,7.51684 -7.51684,7.51683 -6.53452,3.18975 -6.53453,3.18975 -5.92557,1.54341 -5.92558,1.54342 -8.5399,-0.0658 z"
     id="path1422" />
</svg>
