<?xml version="1.0" encoding="UTF-8" standalone="no"?>
<svg
   enable-background="new 0 0 24 24"
   height="24px"
   viewBox="0 0 24 24"
   width="24px"
   fill="#013243"
   version="1.1"
   id="svg1039"
   sodipodi:docname="user_guide.svg"
   inkscape:version="1.1.2 (0a00cf5339, 2022-02-04)"
   xmlns:inkscape="http://www.inkscape.org/namespaces/inkscape"
   xmlns:sodipodi="http://sodipodi.sourceforge.net/DTD/sodipodi-0.dtd"
   xmlns="http://www.w3.org/2000/svg"
   xmlns:svg="http://www.w3.org/2000/svg"
   xmlns:rdf="http://www.w3.org/1999/02/22-rdf-syntax-ns#"
   xmlns:cc="http://creativecommons.org/ns#"
   xmlns:dc="http://purl.org/dc/elements/1.1/">
  <metadata
     id="metadata1045">
    <rdf:RDF>
      <cc:Work
         rdf:about="">
        <dc:format>image/svg+xml</dc:format>
        <dc:type
           rdf:resource="http://purl.org/dc/dcmitype/StillImage" />
        <dc:title />
      </cc:Work>
    </rdf:RDF>
  </metadata>
  <defs
     id="defs1043" />
  <sodipodi:namedview
     pagecolor="#ffffff"
     bordercolor="#666666"
     borderopacity="1"
     objecttolerance="10"
     gridtolerance="10"
     guidetolerance="10"
     inkscape:pageopacity="0"
     inkscape:pageshadow="2"
     inkscape:window-width="1920"
     inkscape:window-height="995"
     id="namedview1041"
     showgrid="false"
     inkscape:zoom="24.546614"
     inkscape:cx="11.142066"
     inkscape:cy="12.954944"
     inkscape:window-x="0"
     inkscape:window-y="0"
     inkscape:window-maximized="1"
     inkscape:current-layer="svg1039"
     inkscape:pagecheckerboard="0" />
  <g
     id="g1021">
    <rect
       fill="none"
       height="24"
       width="24"
       id="rect1019" />
  </g>
  <g
     id="g1023" />
  <path
     d="M 21,5 C 19.89,4.65 18.67,4.5 17.5,4.5 15.55,4.5 13.45,4.9 12,6 10.55,4.9 8.45,4.5 6.5,4.5 4.55,4.5 2.45,4.9 1,6 v 14.65 c 0,0.25 0.25,0.5 0.5,0.5 0.1,0 0.15,-0.05 0.25,-0.05 C 3.1,20.45 5.05,20 6.5,20 c 1.95,0 4.05,0.4 5.5,1.5 1.35,-0.85 3.8,-1.5 5.5,-1.5 1.65,0 3.35,0.3 4.75,1.05 0.1,0.05 0.15,0.05 0.25,0.05 0.25,0 0.5,-0.25 0.5,-0.5 V 6 C 22.4,5.55 21.75,5.25 21,5 Z m 0,13.5 C 19.9,18.15 18.7,18 17.5,18 15.8,18 13.35,18.65 12,19.5 V 8 c 1.35,-0.85 3.8,-1.5 5.5,-1.5 1.2,0 2.4,0.15 3.5,0.5 z"
     id="path1025"
     style="fill:#911230;fill-opacity:1" />
  <path
     d="m 17.5,10.5 c 0.88,0 1.73,0.09 2.5,0.26 V 9.24 C 19.21,9.09 18.36,9 17.5,9 15.8,9 14.26,9.29 13,9.83 v 1.66 c 1.13,-0.64 2.7,-0.99 4.5,-0.99 z"
     id="path1027"
     style="fill:#911230;fill-opacity:1" />
  <path
     d="m 13,12.49 v 1.66 c 1.13,-0.64 2.7,-0.99 4.5,-0.99 0.88,0 1.73,0.09 2.5,0.26 V 11.9 c -0.79,-0.15 -1.64,-0.24 -2.5,-0.24 -1.7,0 -3.24,0.3 -4.5,0.83 z"
     id="path1029"
     style="fill:#911230;fill-opacity:1" />
  <path
     d="m 17.5,14.33 c -1.7,0 -3.24,0.29 -4.5,0.83 v 1.66 c 1.13,-0.64 2.7,-0.99 4.5,-0.99 0.88,0 1.73,0.09 2.5,0.26 v -1.52 c -0.79,-0.16 -1.64,-0.24 -2.5,-0.24 z"
     id="path1031"
     style="fill:#911230;fill-opacity:1" />
</svg>
