<?xml version="1.0" encoding="UTF-8" standalone="no"?>
<svg
   width="100"
   height="100"
   viewBox="0 0 1194 1063"
   version="1.1"
   id="svg6"
   sodipodi:docname="getting_started.svg"
   inkscape:version="1.1.2 (0a00cf5339, 2022-02-04)"
   xmlns:inkscape="http://www.inkscape.org/namespaces/inkscape"
   xmlns:sodipodi="http://sodipodi.sourceforge.net/DTD/sodipodi-0.dtd"
   xmlns="http://www.w3.org/2000/svg"
   xmlns:svg="http://www.w3.org/2000/svg"
   xmlns:rdf="http://www.w3.org/1999/02/22-rdf-syntax-ns#"
   xmlns:cc="http://creativecommons.org/ns#"
   xmlns:dc="http://purl.org/dc/elements/1.1/"
   xmlns:x="adobe:ns:meta/">
  <defs
     id="defs10" />
  <sodipodi:namedview
     pagecolor="#ffffff"
     bordercolor="#666666"
     borderopacity="1"
     objecttolerance="10"
     gridtolerance="10"
     guidetolerance="10"
     inkscape:pageopacity="0"
     inkscape:pageshadow="2"
     inkscape:window-width="1920"
     inkscape:window-height="995"
     id="namedview8"
     showgrid="false"
     inkscape:zoom="5.8911873"
     inkscape:cx="26.565103"
     inkscape:cy="50.414286"
     inkscape:window-x="0"
     inkscape:window-y="0"
     inkscape:window-maximized="1"
     inkscape:current-layer="svg6"
     inkscape:pagecheckerboard="0" />
  <metadata
     id="metadata2">
<?xpacket begin="﻿" id="W5M0MpCehiHzreSzNTczkc9d"?>    <x:xmpmeta
       x:xmptk="Adobe XMP Core 5.6-c138 79.159824, 2016/09/14-01:09:01        ">
      <metadata>
        <rdf:RDF>
          <rdf:Description
             rdf:about="" />
          <cc:Work
             rdf:about="">
            <dc:format>image/svg+xml</dc:format>
            <dc:type
               rdf:resource="http://purl.org/dc/dcmitype/StillImage" />
          </cc:Work>
        </rdf:RDF>
      </metadata>
    </x:xmpmeta>
<?xpacket end="w"?>  </metadata>
  <path
     style="fill:#911230;fill-opacity:1"
     d="m 497.65833,1062.4848 -9.15833,0.4192 -2,-0.4618 -2,-0.4619 -5.5,-1.0981 -5.5,-1.0982 -7.34028,-3.3686 -7.34027,-3.3687 -6.15973,-4.4092 -6.15972,-4.4091 -6.14559,-6.4189 -6.14558,-6.4189 -4.02356,-6.2252 -4.02356,-6.2253 -3.00256,-7.22 -3.00256,-7.2201 -1.71198,-8.4628 -1.71199,-8.4628 0.53218,-9.5372 0.53218,-9.5372 2.75047,-8.29984 2.75048,-8.29985 7.21414,-8.20015 7.21415,-8.20016 19.33757,-20 19.33757,-20 91.97767,-92.81776 91.97767,-92.81775 -47.87539,-47.88318 -47.87538,-47.88318 -44.05327,43.70094 -44.05327,43.70093 -13.4997,12.40847 -13.49969,12.40847 -6,4.45025 -6,4.45025 -6.72504,3.39128 L 424.04993,742 H 238.5 52.950072 L 45.725036,738.36428 38.5,734.72856 32.989237,730.98948 27.478473,727.2504 20.989237,720.30521 14.5,713.36002 11.134735,707.69123 7.7694705,702.02243 4.9453422,693.76121 2.1212139,685.5 0.96731543,677 l -1.15389844,-8.5 0.654477,-7 0.65447701,-7 1.4718827,-6.5 1.4718827,-6.5 2.0418793,-5.5 2.0418794,-5.5 2.9954179,-5.24471 2.995418,-5.24472 4.393245,-5.39316 4.393244,-5.39317 6.28639,-4.72717 6.28639,-4.72718 10,-5.08512 10,-5.08512 156.88059,-0.68179 156.88059,-0.6818 L 505.13059,452.36941 641,316.50276 V 315.75138 315 l -114.25,-0.0155 -114.25,-0.0155 -14.97802,-1.01873 -14.97802,-1.01874 -6.79763,-1.41734 -6.79764,-1.41735 -5.14125,-2.79822 -5.14125,-2.79822 -7.08778,-7.01911 -7.08778,-7.01912 -3.77331,-7.18063 -3.77332,-7.18064 -1.972,-7.71044 -1.972,-7.71045 v -8.18007 -8.18007 l 1.98261,-7.75192 1.9826,-7.75192 3.25056,-6.65804 3.25056,-6.65805 7.60162,-7.64539 7.60161,-7.64539 4.1439,-2.11405 4.1439,-2.11406 6.27132,-1.44905 6.27132,-1.44906 14,-1.08113 14,-1.08114 115.5,-0.55845 115.5,-0.55845 62,1.08705 62,1.08705 4.25338,0.87738 4.25339,0.87738 3.74661,2.60129 3.74662,2.6013 12,10.77791 12,10.7779 90.65618,89.75446 90.65617,89.75445 73.34385,0.0158 73.3438,0.0158 11.7648,0.97484 11.7649,0.97483 4.7499,2.40696 4.7498,2.40695 6.1869,4.65077 6.1869,4.65077 4.6425,6.17582 4.6424,6.17583 1.8049,3.53788 1.8049,3.53789 2.3144,7.4879 2.3144,7.4879 -0.025,10 -0.025,10 -1.7128,6.42776 -1.7128,6.42776 -3.1851,6.57224 -3.1851,6.57224 -7.54,7.54402 -7.5401,7.54401 -7,3.58286 -7,3.58285 -5.5,1.87313 -5.5,1.87313 h -95 -95 l -6.82618,-1.29254 -6.82617,-1.29253 -5.31662,-1.9892 -5.31662,-1.98921 -6.56082,-4.96667 -6.56083,-4.96668 L 888.9831,479.31801 861.87345,452.63284 802.43672,512.06327 743,571.4937 v 0.89356 0.89356 l 36.25,36.62423 36.25,36.62423 11.30684,12.90427 11.30683,12.90427 2.40613,4.10575 2.40612,4.10574 1.61397,6.29994 1.61397,6.29994 -0.32693,18.73264 -0.32693,18.73263 -3.69247,7.44277 -3.69247,7.44277 -7.52765,9.40932 -7.52765,9.40931 -16.94468,18.09069 L 789.17039,800.5 681.3352,908.04433 573.5,1015.5887 l -17,15.8611 -17,15.8612 -5.96224,4.4198 -5.96225,4.4197 -3.13476,1.3098 -3.13476,1.3098 -7.24467,1.6478 -7.24467,1.6477 z M 988.5,290.48627 l -16,0.40105 -7,-0.96585 -7,-0.96586 -10,-2.63322 -10,-2.63322 -8.48698,-3.41752 -8.48698,-3.41752 -7.86317,-4.67706 -7.86317,-4.67707 -7.64985,-6.1284 -7.64985,-6.1284 -8.65653,-8.98994 -8.65654,-8.98994 -6.07395,-8.19193 -6.07395,-8.19194 -4.43145,-8.18973 -4.43144,-8.18972 -3.08169,-8.81159 -3.08168,-8.8116 -2.2,-10.1884 -2.20001,-10.18841 -0.0393,-20.5 -0.0393,-20.5 1.76888,-8.7699 1.76889,-8.76991 2.90332,-8.884527 2.90333,-8.884531 3.65847,-7.264745 3.65847,-7.264746 2.61274,-4.08082 2.61275,-4.080821 6.15422,-8 6.15422,-8 10.49849,-10.104808 10.4985,-10.104808 9.94265,-6.619093 9.94265,-6.619094 8.56274,-4.012634 8.56274,-4.012634 8.88138,-2.8823056 8.88138,-2.8823059 9.5,-1.8161374 9.5,-1.81613744 15,0.0158049 15.00002,0.015805 8.9637,1.74146374 8.9637,1.7414638 9.3263,2.9874599 9.3262,2.98746 6.2101,2.797191 6.21,2.797192 7.9301,4.700678 7.9301,4.700678 8.0699,6.309327 8.0699,6.309327 7.6825,8.051424 7.6825,8.051425 5.3981,7.331629 5.3981,7.331629 4.0442,7 4.0442,7 3.0262,7 3.0262,7 2.6188,8.36431 2.6188,8.36431 1.6228,9.13569 1.6228,9.13569 v 14 14 l -1.7425,10 -1.7424,10 -3.8421,11.73636 -3.8421,11.73636 -4.0447,8.26364 -4.0447,8.26364 -6.6838,8.89299 -6.6837,8.893 -10.5759,10.61314 -10.576,10.61314 -8.3946,6.30646 -8.3946,6.30646 -8.9094,4.47455 -8.9094,4.47456 -8.696,2.90197 -8.696,2.90197 -10,2.10349 -10,2.10349 -16.00002,0.40105 z"
     id="path837" />
</svg>
